<?xml version="1.0" encoding="iso-8859-1"?>
<!-- Generator: Adobe Illustrator 19.0.0, SVG Export Plug-In . SVG Version: 6.00 Build 0)  -->
<svg xmlns="http://www.w3.org/2000/svg" xmlns:xlink="http://www.w3.org/1999/xlink" version="1.1" id="Layer_1" x="0px" y="0px" viewBox="0 0 512 512" style="enable-background:new 0 0 512 512;" xml:space="preserve">
<path style="fill:#DB412C;" d="M256,8.042c-25.366,0-42.381,8.578-42.381,8.578v94.517h84.761V16.62  C298.381,16.62,281.366,8.042,256,8.042z"/>
<path style="fill:#FFD83D;" d="M377.741,109.21c-0.692-10.735-10.058-19.518-20.816-19.518H155.074  c-10.757,0-20.124,8.783-20.816,19.518l-7.094,110.171h257.671L377.741,109.21z"/>
<polygon style="fill:#495DD9;" points="66.928,245.718 96.326,452.413 277.445,452.413 256,163.045 "/>
<polygon style="fill:#48449E;" points="445.072,245.718 256,163.045 256,452.413 415.676,452.413 "/>
<path style="fill:#6DB4F5;" d="M499.937,431.803c-16.689,0-31.462-8.148-40.667-20.605c-9.17,12.457-23.979,20.605-40.632,20.605  c-16.689,0-31.463-8.148-40.667-20.605c-9.205,12.457-23.98,20.605-40.667,20.605c-16.693,0-31.423-8.148-40.632-20.605  c-9.205,12.457-23.98,20.605-40.667,20.605c-16.693,0-31.463-8.148-40.633-20.605c-9.244,12.457-23.979,20.605-40.667,20.605  c-16.692,0-31.462-8.148-40.632-20.605c-9.205,12.457-24.018,20.605-40.707,20.605c-16.653,0-31.422-8.148-40.632-20.605  c-9.205,12.457-23.974,20.605-40.667,20.605v70.77H499.94v-70.77H499.937z"/>
<path style="fill:#5D8AE1;" d="M459.27,480.054c-9.17,7.573-23.979,12.526-40.632,12.526c-16.689,0-31.463-4.953-40.667-12.526  c-9.205,7.573-23.98,12.526-40.667,12.526c-16.693,0-31.423-4.953-40.632-12.526c-9.205,7.573-23.98,12.526-40.667,12.526  c-16.693,0-31.463-4.953-40.633-12.526c-9.244,7.573-23.979,12.526-40.667,12.526c-16.692,0-31.462-4.953-40.632-12.526  c-9.205,7.573-24.018,12.526-40.707,12.526c-16.653,0-31.422-4.953-40.632-12.526c-9.205,7.573-23.974,12.526-40.667,12.526V512  H499.94v-19.42C483.249,492.58,468.475,487.628,459.27,480.054z"/>
<path d="M354.363,121.858c0-4.442-3.601-8.042-8.042-8.042H165.679c-4.441,0-8.042,3.6-8.042,8.042c0,4.442,3.601,8.042,8.042,8.042  h180.643C350.763,129.9,354.363,126.3,354.363,121.858z"/>
<path d="M80.738,399.933c0.57,4.013,4.012,6.911,7.952,6.911c0.376,0,0.759-0.026,1.142-0.08c4.397-0.626,7.455-4.698,6.829-9.095  L75.75,250.638l172.208-75.299v224.075c0,4.442,3.601,8.042,8.042,8.042c4.442,0,8.042-3.6,8.042-8.042V175.339l117.394,51.332  c0.046,0.021,0.093,0.041,0.139,0.061l54.674,23.907l-20.91,147.016c-0.626,4.397,2.432,8.468,6.829,9.093  c4.385,0.639,8.468-2.432,9.093-6.829l21.771-153.068c0.509-3.576-1.429-7.053-4.739-8.501l-55.75-24.377l-6.779-105.28  c-0.96-14.912-13.897-27.044-28.84-27.044H306.42V16.62c0-3.037-1.71-5.814-4.421-7.181C301.237,9.053,282.968,0,256,0  c-26.969,0-45.237,9.053-46.001,9.439c-2.711,1.367-4.421,4.144-4.421,7.181v65.029h-50.504c-14.943,0-27.881,12.131-28.84,27.043  l-6.779,105.281L63.707,238.35c-3.31,1.448-5.249,4.925-4.739,8.501L80.738,399.933z M221.661,21.964  c6.173-2.283,18.429-5.88,34.339-5.88c15.774,0,28.122,3.619,34.338,5.901V81.65h-68.677L221.661,21.964L221.661,21.964z   M142.283,109.726c0.419-6.501,6.276-11.993,12.79-11.993h201.852c6.514,0,12.372,5.492,12.791,11.993l6.245,96.996l-116.739-51.046  c-0.009-0.003-0.017-0.005-0.026-0.01c-0.228-0.099-0.463-0.187-0.702-0.265c-0.02-0.006-0.041-0.016-0.061-0.023  c-0.552-0.175-1.13-0.29-1.726-0.341c-0.472-0.042-0.946-0.042-1.418,0c-0.595,0.053-1.172,0.166-1.722,0.341  c-0.024,0.008-0.045,0.017-0.069,0.025c-0.236,0.077-0.469,0.163-0.695,0.262c-0.009,0.003-0.017,0.006-0.027,0.01L136.038,206.72  L142.283,109.726z"/>
<path d="M12.063,439.623c15.194,0,29.813-6.038,40.668-16.498c10.854,10.461,25.46,16.498,40.632,16.498  c15.211,0,29.839-6.034,40.697-16.49c10.832,10.456,25.439,16.49,40.642,16.49c15.415,0,29.795-5.909,40.673-16.476  c10.83,10.447,25.433,16.476,40.628,16.476c15.183,0,29.791-6.029,40.646-16.476c10.853,10.567,25.227,16.476,40.654,16.476  c15.194,0,29.812-6.037,40.667-16.498c10.855,10.461,25.475,16.498,40.668,16.498c15.202,0,29.81-6.034,40.64-16.489  c10.855,10.456,25.469,16.489,40.659,16.489c4.442,0,8.042-3.6,8.042-8.042c0-4.442-3.6-8.042-8.042-8.042  c-13.59,0-26.056-6.322-34.202-17.343c-1.516-2.052-3.915-3.263-6.467-3.263c-0.002,0-0.005,0-0.008,0  c-2.554,0.002-4.955,1.218-6.469,3.275c-7.987,10.852-20.756,17.331-34.154,17.331c-13.39,0-26.176-6.483-34.201-17.343  c-1.516-2.052-3.916-3.263-6.468-3.263s-4.952,1.211-6.468,3.263c-8.025,10.86-20.808,17.343-34.199,17.343  c-13.565,0-26.018-6.322-34.165-17.344c-1.516-2.051-3.916-3.262-6.467-3.262c-2.552,0-4.951,1.211-6.467,3.263  c-8.027,10.859-20.811,17.343-34.202,17.343c-13.4,0-26.168-6.479-34.157-17.331c-1.513-2.054-3.909-3.269-6.46-3.275  c-0.005,0-0.011,0-0.016,0c-2.546,0-4.941,1.205-6.458,3.249c-8.185,11.031-20.654,17.357-34.209,17.357  c-13.399,0-26.168-6.479-34.156-17.331c-1.514-2.057-3.915-3.272-6.469-3.275c-0.002,0-0.004,0-0.008,0  c-2.551,0-4.952,1.211-6.468,3.263c-8.025,10.86-20.824,17.343-34.239,17.343c-13.365,0-26.136-6.484-34.166-17.345  c-1.517-2.051-3.916-3.261-6.468-3.261c-2.551,0-4.951,1.212-6.467,3.263c-8.144,11.021-20.609,17.343-34.199,17.343  c-4.441,0-8.042,3.6-8.042,8.042C4.021,436.023,7.622,439.623,12.063,439.623z"/>
<path d="M499.937,487.874c-13.59,0-26.056-6.322-34.202-17.343c-1.516-2.052-3.915-3.263-6.467-3.263c-0.002,0-0.005,0-0.008,0  c-2.554,0.002-4.955,1.218-6.469,3.275c-7.987,10.852-20.756,17.331-34.154,17.331c-13.39,0-26.176-6.483-34.201-17.343  c-1.516-2.052-3.916-3.263-6.468-3.263s-4.952,1.211-6.468,3.263c-8.025,10.86-20.808,17.343-34.199,17.343  c-13.565,0-26.018-6.322-34.165-17.344c-1.516-2.051-3.916-3.262-6.467-3.262c-2.552,0-4.951,1.211-6.467,3.263  c-8.027,10.859-20.811,17.343-34.202,17.343c-13.4,0-26.168-6.479-34.157-17.331c-1.513-2.054-3.909-3.269-6.46-3.275  c-0.005,0-0.011,0-0.016,0c-2.546,0-4.941,1.205-6.458,3.249c-8.185,11.031-20.654,17.357-34.209,17.357  c-13.399,0-26.168-6.479-34.156-17.331c-1.514-2.057-3.915-3.272-6.469-3.275c-0.002,0-0.004,0-0.008,0  c-2.551,0-4.952,1.211-6.468,3.263c-8.025,10.86-20.824,17.343-34.239,17.343c-13.365,0-26.136-6.484-34.166-17.345  c-1.517-2.051-3.916-3.261-6.468-3.261c-2.551,0-4.951,1.212-6.467,3.263c-8.144,11.021-20.609,17.343-34.199,17.343  c-4.441,0-8.042,3.6-8.042,8.042c0,4.442,3.601,8.042,8.042,8.042c15.194,0,29.813-6.038,40.668-16.498  c10.854,10.461,25.46,16.498,40.632,16.498c15.211,0,29.839-6.034,40.697-16.49c10.832,10.456,25.439,16.49,40.642,16.49  c15.415,0,29.795-5.909,40.673-16.476c10.83,10.447,25.433,16.476,40.628,16.476c15.183,0,29.791-6.029,40.646-16.476  c10.853,10.567,25.227,16.476,40.654,16.476c15.194,0,29.812-6.037,40.667-16.498c10.855,10.461,25.475,16.498,40.668,16.498  c15.202,0,29.81-6.034,40.64-16.489c10.855,10.456,25.469,16.489,40.659,16.489c4.442,0,8.042-3.6,8.042-8.042  C507.979,491.474,504.38,487.874,499.937,487.874z"/>
<g>
</g>
<g>
</g>
<g>
</g>
<g>
</g>
<g>
</g>
<g>
</g>
<g>
</g>
<g>
</g>
<g>
</g>
<g>
</g>
<g>
</g>
<g>
</g>
<g>
</g>
<g>
</g>
<g>
</g>
</svg>
